<svg height="512" viewBox="0 0 64 64" width="512" xmlns="http://www.w3.org/2000/svg"><path d="m32 30a1 1 0 0 1 -1-1v-4a3 3 0 0 1 3-3h23a3 3 0 0 0 0-6h-50a5 5 0 0 1 0-10h23a1 1 0 0 0 1-1v-2a1 1 0 0 1 2 0v2a3 3 0 0 1 -3 3h-23a3 3 0 0 0 0 6h50a5 5 0 0 1 0 10h-23a1 1 0 0 0 -1 1v4a1 1 0 0 1 -1 1z" fill="#a7a9ac"/><path d="m29 31v2h6v-2a2 2 0 0 0 -2-2h-2a2 2 0 0 0 -2 2z" fill="#808285"/><path d="m61 47v2a12.005 12.005 0 0 1 -21.95 6.72 3.942 3.942 0 0 0 -3.27-1.72h-7.56a3.928 3.928 0 0 0 -3.26 1.71 11.98 11.98 0 0 1 -10.1 5.29 12.252 12.252 0 0 1 -11.86-12.37v-1.63a14 14 0 0 1 14-14h30a14 14 0 0 1 14 14z" fill="#d1e7f8"/><path d="m5 48.63v-1.63a14 14 0 0 1 14-14h-2a14 14 0 0 0 -14 14v1.63a12.252 12.252 0 0 0 11.86 12.37c.376 0 .743-.028 1.111-.057a12.287 12.287 0 0 1 -10.971-12.313z" fill="#9bc9ff"/><path d="m18 40h-4v5h-5v4h5v5h4v-5h5v-4h-5z" fill="#2488ff"/><circle cx="49" cy="41" fill="#9cdd05" r="2"/><circle cx="49" cy="53" fill="#ffcd00" r="2"/><circle cx="55" cy="47" fill="#ffc477" r="2"/><circle cx="43" cy="47" fill="#ff3051" r="2"/><path d="m31.707 47.293a1 1 0 0 0 -1.414 0l-2 2a1 1 0 1 0 1.414 1.414l2-2a1 1 0 0 0 0-1.414z" fill="#ff9811"/><path d="m34.293 47.293-2 2a1 1 0 1 0 1.414 1.414l2-2a1 1 0 0 0 -1.414-1.414z" fill="#5eac24"/></svg>